<svg id="visual" viewBox="0 0 900 600" width="900" height="600" xmlns="http://www.w3.org/2000/svg" xmlns:xlink="http://www.w3.org/1999/xlink" version="1.1"><path d="M0 61L82 61L164 91L245 85L327 37L409 79L491 37L573 67L655 49L736 103L818 97L900 103L900 0L818 0L736 0L655 0L573 0L491 0L409 0L327 0L245 0L164 0L82 0L0 0Z" fill="#00cc8e"></path><path d="M0 163L82 181L164 205L245 187L327 121L409 139L491 97L573 151L655 139L736 181L818 187L900 163L900 101L818 95L736 101L655 47L573 65L491 35L409 77L327 35L245 83L164 89L82 59L0 59Z" fill="#00a87d"></path><path d="M0 241L82 235L164 313L245 235L327 247L409 283L491 265L573 205L655 223L736 283L818 283L900 295L900 161L818 185L736 179L655 137L573 149L491 95L409 137L327 119L245 185L164 203L82 179L0 161Z" fill="#00866a"></path><path d="M0 367L82 337L164 403L245 385L327 379L409 523L491 511L573 391L655 445L736 397L818 373L900 493L900 293L818 281L736 281L655 221L573 203L491 263L409 281L327 245L245 233L164 311L82 233L0 239Z" fill="#006555"></path><path d="M0 601L82 601L164 601L245 601L327 601L409 601L491 601L573 601L655 601L736 601L818 601L900 601L900 491L818 371L736 395L655 443L573 389L491 509L409 521L327 377L245 383L164 401L82 335L0 365Z" fill="#01463e"></path></svg>